HIERARCHY
ROOT Hips
{
	OFFSET 0.00000 0.00000 0.00000
	CHANNELS 6 Xposition Yposition Zposition Zrotation Yrotation Xrotation 
	JOINT LHipJoint
	{
		OFFSET 0 0 0
		CHANNELS 3 Zrotation Yrotation Xrotation
		JOINT LeftUpLeg
		{
			OFFSET 1.36337 -1.57426 1.11036
			CHANNELS 3 Zrotation Yrotation Xrotation
			JOINT LeftLeg
			{
				OFFSET 2.38468 -6.55187 0.00000
				CHANNELS 3 Zrotation Yrotation Xrotation
				JOINT LeftFoot
				{
					OFFSET 2.37166 -6.51609 0.00000
					CHANNELS 3 Zrotation Yrotation Xrotation
					JOINT LeftToeBase
					{
						OFFSET 0.29078 -0.79891 2.01393
						CHANNELS 3 Zrotation Yrotation Xrotation
						End Site
						{
							OFFSET 0.00000 -0.00000 1.07924
						}
					}
				}
			}
		}
	}
	JOINT RHipJoint
	{
		OFFSET 0 0 0
		CHANNELS 3 Zrotation Yrotation Xrotation
		JOINT RightUpLeg
		{
			OFFSET -1.36349 -1.57426 1.11036
			CHANNELS 3 Zrotation Yrotation Xrotation
			JOINT RightLeg
			{
				OFFSET -2.29562 -6.30717 0.00000
				CHANNELS 3 Zrotation Yrotation Xrotation
				JOINT RightFoot
				{
					OFFSET -2.40985 -6.62100 0.00000
					CHANNELS 3 Zrotation Yrotation Xrotation
					JOINT RightToeBase
					{
						OFFSET -0.23197 -0.63733 1.92232
						CHANNELS 3 Zrotation Yrotation Xrotation
						End Site
						{
							OFFSET -0.00000 -0.00000 1.01562
						}
					}
				}
			}
		}
	}
	JOINT LowerBack
	{
		OFFSET 0 0 0
		CHANNELS 3 Zrotation Yrotation Xrotation
		JOINT Spine
		{
			OFFSET -0.08565 2.03602 -0.24562
			CHANNELS 3 Zrotation Yrotation Xrotation
			JOINT Spine1
			{
				OFFSET -0.00036 2.05693 0.00216
				CHANNELS 3 Zrotation Yrotation Xrotation
				JOINT Neck
				{
					OFFSET 0 0 0
					CHANNELS 3 Zrotation Yrotation Xrotation
					JOINT Neck1
					{
						OFFSET -0.03664 1.69515 0.31789
						CHANNELS 3 Zrotation Yrotation Xrotation
						JOINT Head
						{
							OFFSET 0.00932 1.70181 -0.46013
							CHANNELS 3 Zrotation Yrotation Xrotation
							End Site
							{
								OFFSET 0.01243 1.77620 -0.19377
							}
						}
					}
				}
				JOINT LeftShoulder
				{
					OFFSET 0 0 0
					CHANNELS 3 Zrotation Yrotation Xrotation
					JOINT LeftArm
					{
						OFFSET 3.74344 0.81315 -0.36647
						CHANNELS 3 Zrotation Yrotation Xrotation
						JOINT LeftForeArm
						{
							OFFSET 4.97185 -0.00000 -0.00000
							CHANNELS 3 Zrotation Yrotation Xrotation
							JOINT LeftHand
							{
								OFFSET 3.35811 -0.00000 0.00000
								CHANNELS 3 Zrotation Yrotation Xrotation
								JOINT LeftFingerBase
								{
									OFFSET 0 0 0
									CHANNELS 3 Zrotation Yrotation Xrotation
									JOINT LeftHandIndex1
									{
										OFFSET 0.62278 -0.00000 0.00000
										CHANNELS 3 Zrotation Yrotation Xrotation
										End Site
										{
											OFFSET 0.50210 -0.00000 0.00000
										}
									}
								}
								JOINT LThumb
								{
									OFFSET 0 0 0
									CHANNELS 3 Zrotation Yrotation Xrotation
									End Site
									{
										OFFSET 0.50976 -0.00000 0.50976
									}
								}
							}
						}
					}
				}
				JOINT RightShoulder
				{
					OFFSET 0 0 0
					CHANNELS 3 Zrotation Yrotation Xrotation
					JOINT RightArm
					{
						OFFSET -3.75385 0.50666 -0.06525
						CHANNELS 3 Zrotation Yrotation Xrotation
						JOINT RightForeArm
						{
							OFFSET -4.96493 -0.00000 -0.00000
							CHANNELS 3 Zrotation Yrotation Xrotation
							JOINT RightHand
							{
								OFFSET -3.34929 -0.00000 0.00000
								CHANNELS 3 Zrotation Yrotation Xrotation
								JOINT RightFingerBase
								{
									OFFSET 0 0 0
									CHANNELS 3 Zrotation Yrotation Xrotation
									JOINT RightHandIndex1
									{
										OFFSET -0.63804 -0.00000 0.00000
										CHANNELS 3 Zrotation Yrotation Xrotation
										End Site
										{
											OFFSET -0.51441 -0.00000 0.00000
										}
									}
								}
								JOINT RThumb
								{
									OFFSET 0 0 0
									CHANNELS 3 Zrotation Yrotation Xrotation
									End Site
									{
										OFFSET -0.52226 -0.00000 0.52226
									}
								}
							}
						}
					}
				}
			}
		}
	}
}
MOTION
Frames: 10
Frame Time: 0.0555556
0.00 0.00 0.00 0 0 0 0 0 0 -21 0 0 0 0 0 0 0 0 0 0 0 0 0 0 21 0 0 0 0 0 0 0 0 0 0 0 0 0 0 0 0 0 0 0 0 0 0 -16 0 0 21 0 0 11 0 0 0 -8 0 0 0 0 0 0 0 0 0 0 0 0 0 0 0 0 0 0 0 0 8 0 0 0 0 0 0 0 0 0 0 0 0 0 0 0 0 0
0.00 0.00 0.00 179.0040 43.7020 -164.8410 0.0000 0.0000 0.0000 -2.6477 -7.2182 -32.0458 3.1212 10.8887 31.9054 -0.0785 7.9006 -9.4229 0.7349 -5.4769 -15.2741 0.0000 0.0000 0.0000 21.8750 -1.6563 -16.7689 -1.0447 -6.5000 18.2423 -1.2331 -11.0441 -27.6145 -0.6741 -5.2502 14.6236 8.0772 2.0525 -20.7355 0.6572 0.8345 0.0648 -3.6067 0.9115 11.8804 10.7033 12.6496 -14.7077 -7.4606 18.2594 24.9471 -1.5032 8.6133 12.3688 -0.0000 -0.0000 0.0000 -87.4630 -18.1810 77.0731 97.7261 -59.7732 -66.6859 -0.0000 0.0000 -39.3895 6.2023 -12.3199 -1.3283 -7.1250 0.0000 -0.0000 -14.5537 17.8127 9.7236 -0.0000 -0.0000 0.0000 100.9003 38.9233 107.7938 -111.0185 58.2631 -78.0964 0.0000 -0.0000 -6.8432 -5.0452 -19.6999 1.7046 7.1250 -0.0000 -0.0000 22.4699 -48.3903 -1.9718
0.00 0.00 0.00 185.7590 62.4800 -156.4260 0.0000 0.0000 0.0000 1.6937 -9.4046 -29.6126 2.1669 9.2054 26.4399 0.1929 5.0394 -11.6758 0.6139 -5.0148 -13.9508 0.0000 0.0000 0.0000 17.3061 3.7763 -21.4745 -1.1489 -6.8061 19.1421 -0.8578 -1.7278 -18.2018 -0.1895 -2.8034 7.7320 6.1442 1.8863 -14.2255 0.9994 1.4246 0.8546 -2.0825 0.9756 9.0675 7.3937 9.4064 -18.6568 -4.7364 13.8505 29.8708 -0.5516 6.4715 14.2050 0.0000 0.0000 0.0000 -84.5330 -13.7543 66.0133 78.9838 -59.5364 -50.4745 -0.0000 0.0000 -43.4998 14.2567 -10.5035 -2.6520 -7.1250 0.0000 -0.0000 -9.0436 19.2211 5.6324 0.0000 0.0000 0.0000 95.9513 33.8851 102.6767 -104.6995 59.1676 -72.6945 0.0000 -0.0000 -8.9880 -4.9622 -18.5985 1.5862 7.1250 -0.0000 -0.0000 22.0515 -47.3603 -1.3471
0.00 0.00 0.00 182.5400 78.3291 -158.1800 0.0000 0.0000 0.0000 -9.0176 0.1949 -32.0358 2.5185 9.8714 28.5613 0.4153 6.7970 -16.5334 0.8087 -5.7391 -16.0292 0.0000 0.0000 0.0000 6.6478 10.7430 -26.5689 -1.3690 -7.4050 20.9209 -0.6473 0.0058 -15.2032 -0.3346 3.7174 -10.2829 -2.1774 1.5794 -6.6762 -0.9954 2.3611 1.7984 0.4548 1.1123 5.5726 4.6241 7.3431 -19.5406 -3.0924 11.4094 32.4197 0.1426 5.2686 15.0128 -0.0000 0.0000 0.0000 -78.6873 -9.7997 60.3966 54.6865 -54.7192 -29.9599 -0.0000 0.0000 -24.7893 13.7608 -7.3198 -1.7872 -7.1250 0.0000 -0.0000 -9.5110 22.4766 5.2227 -0.0000 0.0000 0.0000 87.9764 25.5969 92.5265 -89.0105 59.9963 -59.1431 0.0000 -0.0000 -8.3425 -7.9865 -22.9805 3.1353 7.1250 -0.0000 -0.0000 21.3553 -51.8830 -3.7615
0.00 0.00 0.00 171.8700 86.5902 -167.8990 0.0000 0.0000 0.0000 -14.1756 2.6552 -35.4507 3.0324 10.7473 31.4322 0.6955 7.7493 -20.4258 0.2556 -3.2529 -8.9836 0.0000 0.0000 0.0000 2.2547 10.8692 -32.1068 -1.4677 -7.6560 21.6741 -0.6575 -1.2813 -15.8334 -0.7215 5.4279 -15.1331 -7.9615 1.5702 -2.5855 -1.9245 2.5753 2.5344 2.6039 1.1080 3.8365 4.0013 7.7206 -19.0170 -4.3918 12.4505 31.3153 -0.1325 5.4461 14.5170 0.0000 -0.0000 0.0000 -73.1189 -8.7244 62.1882 39.4661 -47.7504 -18.0430 -0.0000 0.0000 -15.1007 16.5548 -7.9433 -2.3523 -7.1250 0.0000 -0.0000 -7.4610 21.7238 4.2045 0.0000 -0.0000 0.0000 86.1840 18.7031 81.4155 -64.5096 57.3965 -38.1176 0.0000 -0.0000 -7.3466 -14.4142 -28.8890 7.0782 7.1250 -0.0000 -0.0000 18.5015 -58.6818 -6.3264
0.00 0.00 0.00 319.0150 88.5297 -18.8172 0.0000 0.0000 0.0000 -12.9944 1.6428 -49.6499 5.5340 13.9610 43.0814 0.7258 8.1582 -21.0589 0.0160 -0.8171 -2.2457 0.0000 0.0000 0.0000 12.1491 1.9591 -42.7436 -4.4863 -12.7809 38.5537 -1.1222 -2.0014 -20.8258 -0.0006 -0.1615 0.4438 -7.0727 1.9308 10.8514 -1.5828 2.1336 5.8034 2.0902 1.0464 -0.1780 1.0445 6.5386 -21.9290 -8.6480 11.2220 20.9000 -1.4797 4.1866 10.9908 -0.0000 0.0000 0.0000 -66.5493 -11.0392 68.0471 41.7236 -49.0586 -19.7315 -0.0000 0.0000 -9.8875 13.1308 -8.3003 -1.9287 -7.1250 0.0000 -0.0000 -9.9209 21.5080 5.6766 -0.0000 0.0000 0.0000 83.8828 6.6834 50.8055 -26.7975 37.9854 -9.3742 0.0000 -0.0000 -13.9287 -19.3589 -31.3186 10.3499 7.1250 -0.0000 -0.0000 14.8969 -62.1899 -6.3017
0.00 0.00 0.00 466.5760 83.6243 127.4150 0.0000 0.0000 0.0000 -5.8628 0.8639 -51.4594 3.7212 11.7799 34.9577 0.0575 10.9815 -16.4546 0.6615 -5.2017 -14.4848 0.0000 0.0000 0.0000 8.3296 -3.0275 -49.6601 -8.8327 -16.6988 55.5096 -2.3724 3.7643 -28.2373 -0.0008 -0.1823 0.5009 0.7968 -0.0860 17.4905 -2.5662 0.2555 5.8751 -3.2285 0.2981 -3.4965 3.3273 9.0530 -23.5354 -20.4127 18.3411 21.3803 -4.7785 6.1864 13.8026 0.0000 0.0000 0.0000 -73.6534 -11.4106 69.2092 49.1448 -52.6447 -25.4928 -0.0000 0.0000 -14.0926 15.9957 -8.3452 -2.3824 -7.1250 0.0000 -0.0000 -7.8554 21.3362 4.5006 0.0000 0.0000 0.0000 80.0641 8.6249 32.2895 -19.1711 29.6307 -5.1152 0.0000 -0.0000 -16.9968 -14.5001 -30.7233 7.5267 7.1250 -0.0000 -0.0000 19.7528 -60.4291 -7.6059
0.00 0.00 0.00 490.6250 85.9745 152.8300 0.0000 0.0000 0.0000 -6.3771 2.9187 -63.3393 7.0034 15.3347 48.8871 -0.0228 6.1526 -8.1324 0.3799 -3.9582 -10.9591 0.0000 0.0000 0.0000 2.7743 -5.0338 -47.4180 -9.6012 -17.1794 58.1471 -2.5711 2.2128 -29.7836 -0.5028 4.5457 -12.6173 -2.0803 1.7074 22.9501 -3.1806 1.9860 6.1444 -2.8279 1.1812 -5.9899 -4.4868 1.0477 -28.4879 -10.4559 6.2408 17.9312 -2.0005 1.2744 10.7775 0.0000 0.0000 0.0000 -62.2814 -10.2686 72.1284 71.6176 -58.6839 -44.1508 -0.0000 -0.0000 2.9562 2.8204 -12.8886 -0.6296 -7.1250 0.0000 -0.0000 -16.7965 17.3852 11.5187 0.0000 0.0000 0.0000 79.0949 0.6346 39.4533 -23.6357 34.7767 -7.4978 0.0000 -0.0000 -37.5717 4.3154 -36.4697 -2.5682 7.1250 -0.0000 -0.0000 44.3158 -60.7059 -19.0857
0.00 0.00 0.00 632.6500 88.6057 295.2640 0.0000 0.0000 0.0000 -10.1885 1.1224 -65.3458 11.8501 18.3265 65.5128 1.4360 0.9408 -23.0117 0.0071 -0.5454 -1.4986 0.0000 0.0000 0.0000 -1.3480 3.8004 -33.3564 -5.9326 -14.3627 44.7106 -1.1289 -16.5950 -31.9707 -0.2361 3.1274 -8.6336 -4.7447 2.1726 24.2137 -2.1979 2.0450 6.8670 -0.2895 1.2316 -5.9433 -11.4005 -6.8097 -31.5568 5.4210 -5.7469 21.9200 2.8154 -2.7371 13.0227 0.0000 -0.0000 0.0000 -78.9279 -24.6806 96.7992 52.3436 -53.8981 -28.0570 -0.0000 0.0000 -16.0417 -6.9349 8.5396 -1.0347 -7.1250 0.0000 -0.0000 -28.1069 37.0153 6.1286 0.0000 -0.0000 0.0000 89.5531 7.0431 24.2400 -14.0568 22.8159 -2.8501 0.0000 -0.0000 -38.5374 14.3565 -33.0042 -7.9367 7.1250 -0.0000 -0.0000 49.4897 -55.9436 -16.0481
0.00 0.00 0.00 732.1290 72.9957 393.2290 0.0000 0.0000 0.0000 -27.8141 8.7307 -59.6507 12.7304 18.6826 68.2859 2.1393 1.0154 -28.0536 0.0021 -0.2927 -0.8043 0.0000 0.0000 0.0000 4.8793 6.5932 -55.3164 -10.2484 -17.5472 60.3153 -2.1055 -2.6998 -28.4926 -0.0037 -0.3922 1.0775 -2.5721 -0.5258 26.8365 0.1837 -0.7756 7.9577 1.8963 -0.1526 -5.9461 -4.6771 0.6102 -35.8463 -4.3735 5.7743 31.7227 0.2007 1.0014 17.8366 0.0000 0.0000 0.0000 -94.2790 -24.9384 107.8584 42.4088 -49.4340 -20.2506 -0.0000 0.0000 -5.0617 20.7112 6.1560 2.3218 -7.1250 0.0000 -0.0000 -5.0780 36.5170 1.0627 0.0000 0.0000 0.0000 85.1104 9.6120 40.0709 -20.5814 31.3364 -5.8307 0.0000 -0.0000 -62.4218 24.2894 -34.1790 -14.2264 7.1250 -0.0000 -0.0000 58.8766 -54.6682 -18.7588
